<svg xmlns="http://www.w3.org/2000/svg" viewBox="0 0 64 64"><rect width="64" height="64" fill="#FFFFFF"/><g transform="translate(32 32) scale(.74) translate(-32 -32)"><clipPath id="w"><path d="M32 32L10.35 44.50A25 25 0 0 1 32.00 7.00Z"/></clipPath><g clip-path="url(#w)"><path d="M32 32L10.35 44.50A25 25 0 0 1 32.00 7.00Z" fill="#2EB88A"/><line x1="32" y1="32" x2="7.38" y2="36.34" stroke="#DDF5EC" stroke-width="1.4"/><line x1="32" y1="32" x2="7.38" y2="27.66" stroke="#DDF5EC" stroke-width="1.4"/><line x1="32" y1="32" x2="10.35" y2="19.50" stroke="#DDF5EC" stroke-width="1.4"/><line x1="32" y1="32" x2="15.93" y2="12.85" stroke="#DDF5EC" stroke-width="1.4"/><line x1="32" y1="32" x2="23.45" y2="8.51" stroke="#DDF5EC" stroke-width="1.4"/><path d="M13.41 45.02A22.7 22.7 0 0 1 33.98 9.39" fill="none" stroke="#0E7A5C" stroke-width="4.6"/></g><clipPath id="p"><path d="M32 32L53.65 44.50A25 25 0 0 1 10.35 44.50Z"/></clipPath><g clip-path="url(#p)"><path d="M32 32L53.65 44.50A25 25 0 0 1 10.35 44.50Z" fill="#FFCB3D"/><path d="M52.57 41.59A22.7 22.7 0 0 1 11.43 41.59" fill="none" stroke="#F09A1A" stroke-width="4.6"/><circle cx="36.68" cy="43.59" r="2.7" fill="#F07A1A"/><circle cx="27.32" cy="43.59" r="2.7" fill="#F07A1A"/><circle cx="32.00" cy="49.50" r="2.3" fill="#F07A1A"/><circle cx="32.00" cy="39.00" r="1.8" fill="#F07A1A"/></g><clipPath id="s"><path d="M32 32L32.00 7.00A25 25 0 0 1 53.65 44.50Z"/></clipPath><g clip-path="url(#s)"><path d="M32 32L32.00 7.00A25 25 0 0 1 53.65 44.50Z" fill="#2F6FDE"/><path d="M30.02 9.39A22.7 22.7 0 0 1 50.59 45.02" fill="none" stroke="#1B4FB8" stroke-width="4.6"/><circle cx="42.65" cy="24.54" r="5.3" fill="#FFFFFF"/><circle cx="45.15" cy="22.54" r="4.5" fill="#2F6FDE"/><circle cx="34.33" cy="23.31" r="0.9" fill="#FFFFFF"/><circle cx="49.93" cy="30.43" r="1" fill="#FFFFFF"/><circle cx="39.47" cy="31.35" r="0.7" fill="#FFFFFF"/></g><line x1="32" y1="32" x2="32.00" y2="6.00" stroke="#FFFFFF" stroke-width="2.2"/><line x1="32" y1="32" x2="54.52" y2="45.00" stroke="#FFFFFF" stroke-width="2.2"/><line x1="32" y1="32" x2="9.48" y2="45.00" stroke="#FFFFFF" stroke-width="2.2"/></g></svg>
